<?xml version="1.0" encoding="UTF-8"?>
<!DOCTYPE svg PUBLIC "-//W3C//DTD SVG 1.1//EN" "http://www.w3.org/Graphics/SVG/1.1/DTD/svg11.dtd">
<!-- Creator: CorelDRAW 2017 -->
<svg xmlns="http://www.w3.org/2000/svg" xml:space="preserve"  version="1.1" style="shape-rendering:geometricPrecision; text-rendering:geometricPrecision; image-rendering:optimizeQuality; fill-rule:evenodd; clip-rule:evenodd"
viewBox="0 0 11000 11000"
 xmlns:xlink="http://www.w3.org/1999/xlink">
 <defs>
  <style type="text/css">
   <![CDATA[
    .fil0 {fill:#A86133}
    .fil1 {fill:#C19F62}
   ]]>
  </style>
 </defs>
 <g id="Layer_x0020_1">
  <metadata id="CorelCorpID_0Corel-Layer"/>
  <g id="_2049667239840">
   <path class="fil0" d="M10525.69 4983.85c-378.44,701.81 -870.35,1212.24 -1425.77,1615.43 -456.2,29.55 -666.54,-211.39 -762.6,-555.78 552.5,-485.22 1055.67,-1014 1449.94,-1639.25 246.14,193.23 492.28,386.45 738.43,579.59z"/>
   <path class="fil0" d="M7891.56 7813.51c-378.44,701.81 -870.35,1212.24 -1425.77,1615.43 -456.2,29.55 -666.54,-211.39 -762.6,-555.78 552.5,-485.22 1055.67,-1014 1449.94,-1639.25 246.14,193.23 492.28,386.45 738.43,579.59z"/>
   <path class="fil0" d="M4579.5 9967.19c-98.46,428.71 264.5,771.16 715.95,634.82 -228.7,-206.56 -487.33,-428.34 -715.95,-634.82z"/>
   <path class="fil0" d="M7786.5 2261.31c-378.44,701.81 -870.35,1212.24 -1425.77,1615.43 -456.2,29.56 -666.54,-211.39 -762.6,-555.78 552.5,-485.22 1055.67,-1014 1449.94,-1639.24 246.14,193.22 492.29,386.45 738.43,579.59z"/>
   <path class="fil0" d="M5241.02 5061.42c-378.44,701.81 -870.35,1212.24 -1425.77,1615.43 -456.2,29.56 -666.53,-211.39 -762.6,-555.78 552.5,-485.22 1055.67,-1014 1449.94,-1639.24 246.14,193.22 492.28,386.45 738.43,579.59z"/>
   <path class="fil0" d="M1829.78 7198.44c-98.46,428.71 264.5,771.16 715.95,634.82 -228.7,-206.56 -487.34,-428.34 -715.95,-634.82z"/>
   <path class="fil0" d="M434.91 6111.92c378.44,-701.81 870.35,-1212.24 1425.77,-1615.43 456.2,-29.56 666.53,211.39 762.6,555.78 -552.5,485.22 -1055.67,1014 -1449.94,1639.24 -246.14,-193.22 -492.28,-386.45 -738.43,-579.59z"/>
   <path class="fil0" d="M3039.49 3370.91c378.44,-701.81 870.35,-1212.24 1425.77,-1615.43 456.2,-29.55 666.54,211.39 762.6,555.78 -552.51,485.22 -1055.67,1014 -1449.94,1639.25 -246.14,-193.23 -492.28,-386.45 -738.43,-579.59z"/>
   <path class="fil0" d="M6489.82 1242.09c98.46,-428.71 -264.5,-771.16 -715.95,-634.82 228.7,206.56 487.33,428.34 715.95,634.82z"/>
   <path class="fil0" d="M3115 8923.11c378.44,-701.81 870.35,-1212.24 1425.77,-1615.43 456.2,-29.56 666.54,211.39 762.6,555.78 -552.5,485.22 -1055.67,1014 -1449.94,1639.24 -246.14,-193.22 -492.28,-386.45 -738.43,-579.59z"/>
   <path class="fil0" d="M5778.68 6063.89c378.44,-701.81 870.35,-1212.24 1425.77,-1615.43 456.2,-29.55 666.53,211.39 762.6,555.78 -552.5,485.22 -1055.67,1014 -1449.94,1639.24 -246.14,-193.23 -492.28,-386.45 -738.43,-579.59z"/>
   <path class="fil0" d="M9121.34 3863.1c98.46,-428.71 -264.5,-771.16 -715.95,-634.82 228.7,206.56 487.33,428.34 715.95,634.82z"/>
  </g>
  <g id="_2049663682432">
   <path class="fil1" d="M4864.26 312.17c704.65,373.12 1218.78,861.16 1626.17,1413.51 33,455.96 -206.35,668.11 -550,766.78 -489.38,-548.82 -1021.95,-1047.97 -1650.16,-1437.51 191.36,-247.59 382.72,-495.19 573.99,-742.79z"/>
   <path class="fil1" d="M7566.69 3014.6c704.65,373.12 1218.78,861.16 1626.17,1413.51 33,455.96 -206.35,668.11 -550,766.78 -489.38,-548.82 -1021.95,-1047.97 -1650.16,-1437.51 191.36,-247.59 382.72,-495.19 573.99,-742.79z"/>
   <path class="fil1" d="M6101.06 10778.05c-704.65,-373.12 -1218.78,-861.15 -1626.17,-1413.51 -33,-455.96 206.35,-668.11 550,-766.78 489.38,548.82 1021.95,1047.97 1650.16,1437.5 -191.36,247.59 -382.72,495.19 -573.99,742.79z"/>
   <path class="fil1" d="M3398.63 8075.63c-704.65,-373.12 -1218.78,-861.15 -1626.17,-1413.51 -33,-455.96 206.35,-668.11 550,-766.78 489.38,548.82 1021.95,1047.97 1650.16,1437.5 -191.36,247.59 -382.72,495.19 -573.99,742.79z"/>
   <path class="fil1" d="M1272.9 4582.17c-429.44,-95.22 -769.14,270.33 -629.39,720.73 204.83,-230.25 424.65,-490.56 629.39,-720.73z"/>
   <path class="fil1" d="M6040.61 5227.72c-704.65,-373.12 -1218.79,-861.15 -1626.17,-1413.51 -33,-455.96 206.34,-668.11 550,-766.78 489.39,548.82 1021.96,1047.97 1650.17,1437.5 -191.36,247.59 -382.72,495.19 -573.99,742.79z"/>
   <path class="fil1" d="M3814.61 1901.81c-429.44,-95.22 -769.14,270.33 -629.39,720.73 204.83,-230.25 424.64,-490.56 629.39,-720.73z"/>
   <path class="fil1" d="M9776.02 6457.79c429.44,95.22 769.14,-270.33 629.39,-720.73 -204.83,230.26 -424.64,490.56 -629.39,720.73z"/>
   <path class="fil1" d="M2222.28 3160.07c704.65,373.12 1218.79,861.16 1626.17,1413.51 33,455.96 -206.34,668.11 -550,766.78 -489.38,-548.82 -1021.96,-1047.97 -1650.17,-1437.51 191.36,-247.59 382.72,-495.19 573.99,-742.79z"/>
   <path class="fil1" d="M4924.7 5862.5c704.65,373.12 1218.79,861.16 1626.17,1413.51 33,455.96 -206.34,668.11 -550,766.78 -489.38,-548.82 -1021.96,-1047.97 -1650.17,-1437.51 191.36,-247.59 382.72,-495.19 573.99,-742.79z"/>
   <path class="fil1" d="M7234.31 9138.16c429.44,95.21 769.14,-270.33 629.39,-720.73 -204.83,230.25 -424.64,490.56 -629.39,720.73z"/>
   <path class="fil1" d="M8743.04 7930.15c-704.65,-373.12 -1218.79,-861.15 -1626.17,-1413.51 -33,-455.96 206.34,-668.11 550,-766.78 489.39,548.82 1021.96,1047.97 1650.17,1437.5 -191.36,247.59 -382.72,495.19 -573.99,742.79z"/>
  </g>
 </g>
</svg>
