<?xml version="1.0" encoding="iso-8859-1"?>
<!-- Generator: Adobe Illustrator 19.0.0, SVG Export Plug-In . SVG Version: 6.00 Build 0)  -->
<svg version="1.1" id="Capa_1" xmlns="http://www.w3.org/2000/svg" xmlns:xlink="http://www.w3.org/1999/xlink" x="0px" y="0px"
	 viewBox="0 0 511.999 511.999" style="enable-background:new 0 0 511.999 511.999;" xml:space="preserve">
<g>
	<g>
		<path fill="#607d8b" d="M281.263,314.091c-3.839-1.554-8.212,0.293-9.77,4.131c-2.557,6.304-8.613,10.377-15.428,10.377
			c-4.444,0-8.63-1.733-11.778-4.875c-1.589-1.589-2.815-3.436-3.646-5.49c-1.549-3.841-5.919-5.699-9.762-4.146
			c-3.841,1.551-5.697,5.921-4.146,9.762c1.588,3.934,3.925,7.461,6.953,10.488c5.987,5.973,13.935,9.262,22.379,9.262
			c12.952,0,24.464-7.748,29.328-19.738C286.951,320.022,285.102,315.648,281.263,314.091z"/>
	</g>
</g>
<g>
	<g>
		<path fill="#607d8b" d="M226.214,278.336c-4.143,0-7.5,3.357-7.5,7.5v2.881c0,4.143,3.357,7.5,7.5,7.5s7.5-3.358,7.5-7.5v-2.881
			C233.714,281.693,230.357,278.336,226.214,278.336z"/>
	</g>
</g>
<g>
	<g>
		<path fill="#607d8b" d="M285.917,278.336c-4.143,0-7.5,3.357-7.5,7.5v2.881c0,4.143,3.357,7.5,7.5,7.5s7.5-3.357,7.5-7.5v-2.881
			C293.417,281.693,290.06,278.336,285.917,278.336z"/>
	</g>
</g>
<g>
	<g>
		<path fill="#607d8b" d="M323.201,277.551V254.62c0-0.026-0.004-0.051-0.004-0.077V234.27c0-32.85-26.724-59.575-59.574-59.575H177.74
			c-4.143,0-7.5,3.357-7.5,7.5v38.01c0,14.527,7.431,27.349,18.689,34.873v22.474c-10.465,1.406-18.56,10.39-18.56,21.229v6.59
			c0,11.128,8.526,20.303,19.389,21.333c5.068,32.256,32.947,56.606,66.312,56.606c17.318,0,33.756-6.577,46.281-18.519
			c10.769-10.255,17.731-23.582,20.017-38.087c10.863-1.03,19.392-10.205,19.392-21.334v-6.59
			C341.76,287.941,333.666,278.958,323.201,277.551z M185.24,220.205v-30.51h78.382c24.578,0,44.574,19.996,44.574,44.574v12.854
			h-96.039C197.316,247.123,185.24,235.048,185.24,220.205z M326.76,305.37c0,3.545-2.885,6.43-6.43,6.43h-4.72
			c-3.99,0-7.282,3.125-7.49,7.109c-0.695,13.35-6.418,25.787-16.115,35.022c-9.727,9.271-22.488,14.378-35.935,14.378
			c-27.758,0-50.626-21.698-52.061-49.397c-0.207-3.986-3.499-7.112-7.49-7.112h-4.72c-3.545,0-6.43-2.885-6.43-6.43v-6.59
			c0-3.54,2.885-6.42,6.43-6.42h4.63c4.143,0,7.5-3.357,7.5-7.5v-23.553c2.662,0.532,5.412,0.815,8.228,0.815h96.043v22.737
			c0,4.143,3.357,7.5,7.5,7.5h4.63c3.545,0.001,6.43,2.881,6.43,6.421V305.37z"/>
	</g>
</g>
<g>
	<g>
		<path fill="#607d8b" d="M426.734,82.442H85.266c-18.302,0-33.191,14.89-33.191,33.191v27.871v43.155c0,4.143,3.357,7.5,7.5,7.5s7.5-3.357,7.5-7.5
			v-35.655h377.852v233.808c0,10.03-8.161,18.191-18.191,18.191H287.305h-62.607H85.266c-10.03,0-18.191-8.161-18.191-18.191
			V216.661c0-4.143-3.357-7.5-7.5-7.5s-7.5,3.357-7.5,7.5v168.151c0,18.302,14.89,33.191,33.191,33.191h130.345l-9.288,48.135
			h-7.521c-18.243,0-33.085,14.842-33.085,33.085v5.276c0,4.143,3.357,7.5,7.5,7.5h165.564c4.143,0,7.5-3.357,7.5-7.5v-5.276
			c0-18.243-14.842-33.085-33.085-33.085h-7.521l-9.288-48.135h130.345c18.302,0,33.191-14.89,33.191-33.191V143.505v-27.871
			C459.927,97.332,445.036,82.442,426.734,82.442z M67.074,136.005v-20.371c0-8.776,6.248-16.122,14.53-17.821
			c1.183-0.243,2.408-0.37,3.661-0.37h341.469c1.254,0,2.478,0.127,3.661,0.37c8.281,1.699,14.53,9.045,14.53,17.821v20.371H67.074z
			 M299.456,481.139c0.008,0,0.015,0.001,0.022,0.001c0.007,0,0.014-0.001,0.021-0.001h13.699c9.219,0,16.85,6.935,17.949,15.861
			H180.855c1.1-8.927,8.73-15.861,17.949-15.861h13.744c0.035,0,0.069,0,0.104,0h38.423c4.143,0,7.5-3.357,7.5-7.5
			s-3.357-7.5-7.5-7.5h-29.474l9.288-48.135h50.225l9.288,48.135h-9.326c-4.143,0-7.5,3.357-7.5,7.5s3.357,7.5,7.5,7.5H299.456z"/>
	</g>
</g>
<g>
	<g>
		<path fill="#607d8b" d="M266.559,109.224h-21.115c-4.143,0-7.5,3.357-7.5,7.5s3.357,7.5,7.5,7.5h21.115c4.143,0,7.5-3.357,7.5-7.5
			S270.701,109.224,266.559,109.224z"/>
	</g>
</g>
<g>
	<g>
		<path fill="#607d8b" d="M297.161,58.17c-9.087-13.894-24.419-22.189-41.013-22.189c-16.595,0-31.927,8.295-41.014,22.189
			c-2.268,3.467-1.295,8.115,2.171,10.382c3.467,2.27,8.115,1.296,10.382-2.171c6.307-9.644,16.946-15.4,28.461-15.4
			c11.514,0,22.153,5.757,28.46,15.4c1.438,2.2,3.837,3.396,6.283,3.396c1.408,0,2.832-0.396,4.099-1.225
			C298.456,66.285,299.428,61.637,297.161,58.17z"/>
	</g>
</g>
<g>
	<g>
		<path fill="#607d8b" d="M327.286,38.495C311.513,14.391,284.921,0,256.148,0c-28.772,0-55.364,14.391-71.137,38.495
			c-2.267,3.466-1.295,8.114,2.171,10.383c3.465,2.266,8.113,1.296,10.383-2.17C210.555,26.854,232.456,15,256.148,15
			s45.594,11.854,58.584,31.708c1.439,2.2,3.837,3.395,6.283,3.395c1.408,0,2.833-0.396,4.1-1.225
			C328.581,46.609,329.553,41.961,327.286,38.495z"/>
	</g>
</g>
<g>
</g>
<g>
</g>
<g>
</g>
<g>
</g>
<g>
</g>
<g>
</g>
<g>
</g>
<g>
</g>
<g>
</g>
<g>
</g>
<g>
</g>
<g>
</g>
<g>
</g>
<g>
</g>
<g>
</g>
</svg>
