<?xml version="1.0" encoding="UTF-8" standalone="no"?><!DOCTYPE svg PUBLIC "-//W3C//DTD SVG 1.1//EN" "http://www.w3.org/Graphics/SVG/1.1/DTD/svg11.dtd"><svg width="100%" height="100%" viewBox="0 0 100 100" version="1.1" xmlns="http://www.w3.org/2000/svg" xmlns:xlink="http://www.w3.org/1999/xlink" xml:space="preserve" xmlns:serif="http://www.serif.com/" style="fill-rule:evenodd;clip-rule:evenodd;stroke-linejoin:round;stroke-miterlimit:1.41421;"><rect id="Artboard1" x="0" y="0" width="100" height="100" style="fill:none;"/><clipPath id="_clip1"><rect id="Artboard11" serif:id="Artboard1" x="0" y="0" width="100" height="100"/></clipPath><g clip-path="url(#_clip1)"><g id="_556839671680"><path d="M0.058,24.126l42.853,31.274c0,0 3.321,2.397 7.103,0.924c0.434,-0.144 1.127,-0.462 1.502,-0.693c0.895,-0.549 1.242,-1.328 1.993,-1.733c0.837,-0.491 1.357,-0.288 2.021,0.405c0.78,0.837 1.935,1.761 3.465,2.108c0,0 2.31,0.231 3.35,0.26c1.155,1.183 -3.581,4.389 -5.747,3.667c0,0 -3.003,-1.04 -6.093,0.664c0,0 -1.155,0.578 -1.819,1.357l-2.772,3.927c-0.404,0.549 -0.895,0.462 -1.559,0.26l-31.592,-12.532c-0.808,-0.318 -0.924,-1.502 -1.183,-2.31l29.165,12.965c0.578,0.26 0.78,-0.433 0.087,-0.75l-31.765,-14.525c0,0 -1.328,-1.415 -1.934,-3.177l33.237,16.229c0.924,0.433 1.126,-0.607 0.202,-1.097l-35.143,-18.135c0,0 -2.772,-2.397 -3.408,-6.006l38.377,21.917c1.502,0.866 1.733,-0.289 0.549,-0.982l-39.85,-24.227c0,0 -1.386,-6.729 -1.039,-9.79Z" style="fill:url(#_Linear2);"/><path d="M54.23,75.816l-0.057,-0.087l-1.791,-1.761c-0.231,-0.202 -0.144,-0.116 0,-0.347l1.935,-2.772c0,0 -1.444,-1.155 -0.26,-2.888c0.058,-0.086 0.087,-0.144 0.145,-0.202c0.144,-0.202 0.115,-0.144 0.375,-0.144l11.406,0c0.693,0 0.636,-0.116 0.289,0.577c-0.289,0.636 -0.837,1.675 -1.761,2.83c-0.145,0.202 -0.145,0.173 -0.376,0.289l-9.587,4.447l-0.173,0.087c-0.116,0.029 -0.058,0.029 -0.145,-0.029Z" style="fill:#009846;"/><path d="M100,30.248l-34.565,25.412c0,0 -2.224,7.797 -13.139,6.641c-0.116,0 -0.087,0.029 -0.174,0.116l-5.515,5.544c-0.116,0.116 -0.173,0.202 -0.029,0.347l3.87,3.812c0.49,0.519 0.953,-0.231 1.212,-0.636c0.116,-0.173 0.058,-0.115 -0.028,-0.317c-0.26,-0.549 -0.838,-2.253 -0.058,-4.534c0.173,-0.491 0.115,-0.404 0.606,-0.404l14.872,0l20.242,-6.093c0,0 0.953,-1.242 1.155,-2.31l-20.156,6.757c-1.241,0.433 -1.184,-0.347 -0.144,-0.722l22.841,-8.346c0,0 1.502,-1.443 1.906,-3.176l-24.314,10.02c-1.473,0.607 -1.357,-0.548 -0.289,-1.039l26.307,-11.955c0,0 2.945,-2.657 3.408,-6.007l-29.772,15.854c-1.473,0.779 -1.762,-0.318 -0.376,-1.127l31.072,-18.047c0,0 1.27,-4.361 1.068,-9.79Z" style="fill:#0f7dae;"/></g></g><defs><linearGradient id="_Linear2" x1="0" y1="0" x2="1" y2="0" gradientUnits="userSpaceOnUse" gradientTransform="matrix(61.6949,-48.2882,48.2882,61.6949,0.769422,72.4147)"><stop offset="0" style="stop-color:#009846;stop-opacity:1"/><stop offset="1" style="stop-color:#ffed00;stop-opacity:1"/></linearGradient></defs></svg>