<?xml version="1.0" encoding="UTF-8" standalone="no"?><!DOCTYPE svg PUBLIC "-//W3C//DTD SVG 1.1//EN" "http://www.w3.org/Graphics/SVG/1.1/DTD/svg11.dtd"><svg width="100%" height="100%" viewBox="0 0 700 700" version="1.1" xmlns="http://www.w3.org/2000/svg" xmlns:xlink="http://www.w3.org/1999/xlink" xml:space="preserve" xmlns:serif="http://www.serif.com/" style="fill-rule:evenodd;clip-rule:evenodd;stroke-linejoin:round;stroke-miterlimit:1.41421;"><rect id="Artboard1" x="0" y="0" width="700" height="700" style="fill:none;"/><clipPath id="_clip1"><rect x="0" y="0" width="700" height="700"/></clipPath><g clip-path="url(#_clip1)"><g id="_682662140128"><path d="M60.821,146.679l-58.208,197.628c-8.539,29.336 4.589,39.909 28.639,39.909l17.544,0l-5.519,18.705l45.021,-22.83l68.781,-233.412l-38.806,0l-60.241,204.076l-8.539,0c-7.145,0 -9.237,-2.556 -7.145,-9.701l57.278,-194.375l-38.805,0Zm124.432,198.093c-1.162,3.718 -3.718,5.983 -7.61,5.983l-13.826,0l48.681,-165.038l-38.805,0l-58.15,198.557l65.992,0c16.15,0 32.299,-5.519 38.108,-25.154l54.49,-184.905c4.59,-15.685 -3.02,-27.478 -20.564,-27.478l-75.519,0l-21.262,33.461l67.851,0c5.519,0 8.075,2.324 6.448,8.075l-45.834,156.499Zm191.586,-3.253l-50.307,37.643l-1.627,5.054l39.038,0l12.896,-42.697Zm-1.859,-5.054l-24.921,-37.644l-6.216,20.565l-40.373,0l67.154,-91.901l-18.474,63.959l27.245,41.535l54.49,-186.3l-49.145,0l-205.703,279.537l45.951,0l55.419,-76.39l54.723,0l-6.216,20.797l46.066,-34.158Zm153.072,5.054l-50.307,37.643l-1.627,5.054l39.038,0l12.896,-42.697Zm-1.859,-5.054l-24.921,-37.644l-6.216,20.565l-40.374,0l67.154,-91.901l-18.473,63.959l27.245,41.535l54.49,-186.3l-49.204,0l-205.702,279.537l45.95,0l55.42,-76.39l54.722,0l-6.216,20.797l46.125,-34.158Zm111.478,-150.748l-38.805,0l-58.382,198.557l38.805,0l58.382,-198.557Zm-39.677,198.499l38.805,0l61.868,-210.059c4.589,-15.685 -2.788,-27.478 -20.332,-27.478l-75.054,0l-21.262,33.461l67.154,0c5.519,0 8.075,2.324 6.448,8.075l-57.627,196.001Z" style="fill-rule:nonzero;"/><path d="M40.721,451.602l-28.058,95.387l18.647,0l28.175,-95.387l-18.764,0Zm35.901,-2.672l4.763,-16.091l-50.017,0l-6.971,16.091l52.225,0Zm25.967,17.428l-16.615,0l-9.527,32.299l-8.423,0l9.411,-32.299l-16.614,0l-23.76,80.631l16.615,0l10.107,-34.042l8.424,0l-9.992,34.042l16.614,0l23.76,-80.631Zm-18.532,80.631l31.138,0l5.518,-15.278l-15.394,0l5.519,-18.764l14.523,0l4.24,-14.29l-14.523,0l5.229,-17.718l14.871,0l4.299,-14.523l-31.718,0l-23.702,80.573Zm78.947,-95.387l-28.058,95.387l34.158,0l9.41,-17.195l-19.867,0l9.527,-32.59l17.95,0l4.764,-16.44l-17.834,0l8.539,-29.162l-18.589,0Zm41.826,-18.705l-39.677,0l-10.224,16.091l45.254,0l4.647,-16.091Zm12.78,33.461l-16.73,0l-19.287,65.643c-3.195,10.631 2.556,14.988 10.747,14.988l9.644,0l-1.859,6.332l19.286,-9.411l22.83,-77.494l-16.614,0l-19.751,67.096l-4.299,0c-2.44,0 -3.544,-0.872 -2.789,-3.312l18.764,-63.784l0.058,-0.058Zm30.15,56.755c7.087,1.104 23.062,2.44 26.257,-8.656l11.096,-37.817c1.568,-5.228 -0.465,-10.341 -7.785,-10.341l-29.626,0l-23.76,80.632l16.731,0l7.087,-23.818Zm3.543,-12.199l9.295,-31.602l4.88,0c2.44,0 3.079,1.336 2.556,3.311l-7.436,25.154c-0.755,2.672 -1.568,3.079 -3.311,3.079l-5.984,0.058Zm83.943,-44.556l-16.614,0l-9.528,32.299l-8.423,0l9.411,-32.299l-16.614,0l-23.76,80.631l16.615,0l10.108,-34.042l8.423,0l-9.992,34.042l16.614,0l23.76,-80.631Zm20.39,12.954l4.241,0c1.568,0 1.975,0.871 1.684,2.091l-14.755,50.133c-0.349,1.22 -1.336,1.976 -2.672,1.976l-4.299,0c-1.336,0 -1.859,-0.756 -1.568,-1.976l14.871,-50.249c0.29,-1.046 0.871,-1.975 2.498,-1.975Zm-6.739,-12.954c-5.46,0 -9.178,3.195 -10.398,7.9l-18.183,61.751c-1.975,6.855 2.324,10.98 7.959,10.98l19.867,0c5.519,0 10.979,-1.859 12.955,-8.54l18.531,-62.855c1.336,-4.763 -1.336,-9.178 -6.565,-9.178l-24.166,-0.058Zm42.001,46.241l5.518,0c1.975,0 2.208,1.452 1.801,2.788l-9.295,31.602l16.731,0l8.655,-29.395c1.801,-5.751 -0.639,-8.423 -3.195,-8.888c4.125,0 6.449,-2.439 7.088,-4.763l8.074,-27.419c1.569,-5.345 -0.755,-10.225 -7.958,-10.225l-30.498,0l-23.76,80.632l16.731,0l10.108,-34.332Zm3.485,-11.851l6.332,-21.378l5.228,0c2.556,0 3.195,1.22 2.556,3.311l-4.415,14.988c-0.755,2.44 -2.207,3.079 -3.892,3.079l-5.809,0Zm57.743,-34.39l-17.195,0l-23.759,80.631l17.195,0l23.759,-80.631Zm44.905,0l-30.963,0c-5.46,0 -8.888,1.568 -10.631,7.551l-17.137,58.324c-3.079,10.515 3.195,14.756 10.747,14.756l21.843,0l5.983,-15.278l-18.531,0c-2.324,0 -3.195,-0.988 -2.44,-3.544l13.652,-46.357c0.581,-1.975 1.336,-2.44 3.078,-2.44l5.461,0l-4.415,15.278l16.208,-3.776l7.145,-24.514Zm19.403,63.436l28.523,-96.897l-18.938,0l-30.963,105.029c-1.801,6.216 2.44,9.121 5.519,9.121l25.967,0l9.41,-17.195l-19.518,0l0,-0.058Zm18.24,17.195l31.137,0l5.519,-15.278l-15.394,0l5.519,-18.764l14.523,0l4.24,-14.29l-14.523,0l5.229,-17.718l14.871,0l4.299,-14.523l-31.718,0l-23.702,80.573Zm71.395,-26.606l-8.307,0l14.639,-36.482l-6.332,36.482Zm-18.647,26.606l5.751,-14.523l10.979,0l-2.556,14.523l16.614,0l10.979,-80.631l-23.817,0l-35.378,80.631l17.428,0Zm58.324,-23.876c7.087,1.104 23.062,2.44 26.257,-8.656l11.095,-37.817c1.569,-5.228 -0.464,-10.341 -7.784,-10.341l-29.627,0l-23.759,80.632l16.73,0l7.088,-23.818Zm3.543,-12.199l9.295,-31.602l4.88,0c2.439,0 3.078,1.336 2.556,3.311l-7.436,25.154c-0.755,2.672 -1.569,3.079 -3.311,3.079l-5.984,0.058Z" style="fill-rule:nonzero;"/></g></g></svg>