<?xml version="1.0" encoding="iso-8859-1"?>
<!-- Generator: Adobe Illustrator 19.0.0, SVG Export Plug-In . SVG Version: 6.00 Build 0)  -->
<svg version="1.1" id="Capa_1" xmlns="http://www.w3.org/2000/svg" xmlns:xlink="http://www.w3.org/1999/xlink" x="0px" y="0px"
	 viewBox="0 0 354.161 354.161" style="enable-background:new 0 0 354.161 354.161;" xml:space="preserve">
<g>
	<g>
		<path fill="#ff9800" d="M286.24,118.931c-24.129-60.276-92.554-89.579-152.83-65.45c-29.849,11.949-53.501,35.601-65.45,65.45
			c-1.326,3.314,0.286,7.075,3.6,8.4c3.314,1.325,7.074-0.286,8.4-3.6c21.521-53.682,82.485-79.754,136.167-58.233
			c26.549,10.643,47.589,31.684,58.233,58.233c1.332,3.264,5.04,4.85,8.32,3.56C285.966,125.959,287.557,122.223,286.24,118.931z"/>
	</g>
</g>
<g>
	<g>
		<path fill="#ff9800" d="M220.84,145.131c-3.534-8.722-9.61-16.179-17.44-21.4c-21.451-14.537-50.626-8.932-65.163,12.519
			c-1.886,2.783-3.467,5.76-4.717,8.881c-1.326,3.314,0.286,7.075,3.6,8.4c3.314,1.326,7.074-0.286,8.4-3.6
			c6.966-17.485,26.788-26.013,44.273-19.047c8.695,3.464,15.583,10.352,19.047,19.047c1.326,3.314,5.086,4.925,8.4,3.6
			C220.554,152.206,222.166,148.445,220.84,145.131z"/>
	</g>
</g>
<g>
	<g>
		<path fill="#ff9800" d="M331.68,187.971l-0.12,0.04h-11.04c-1.452-3.089-3.428-5.904-5.84-8.32c-5.494-5.528-12.966-8.638-20.76-8.64H60.28
			c-11.4,0.035-21.758,6.639-26.6,16.96H22.6c-6.002-0.033-11.766,2.345-16,6.6c-4.259,4.231-6.637,9.997-6.6,16v59.2
			c0.022,12.406,10.074,22.458,22.48,22.48h11.08c4.895,10.313,15.304,16.874,26.72,16.84h86.88c3.557,0,6.44-2.883,6.44-6.44v-6.08
			c0.044-12.949,10.531-23.436,23.48-23.48c12.949,0.044,23.436,10.531,23.48,23.48v6.2c0.065,3.51,2.93,6.321,6.44,6.32h86.92
			c7.794-0.002,15.266-3.112,20.76-8.64c2.412-2.416,4.388-5.231,5.84-8.32h11.08c6.002,0.033,11.766-2.345,16-6.6
			c4.24-4.24,6.603-10.004,6.56-16v-59.12C354.138,198.045,344.087,187.993,331.68,187.971z M30.88,279.411H22.6
			c-5.293-0.022-9.578-4.307-9.6-9.6v-59.36c0-5.302,4.298-9.6,9.6-9.6h8.28V279.411z M310.4,279.891
			c-0.044,9.083-7.397,16.436-16.48,16.48h-80.48c-0.241-19.922-16.436-35.958-36.36-36c-19.924,0.042-36.12,16.078-36.36,36H60.28
			c-9.083-0.044-16.436-7.397-16.48-16.48v-79.48c0.044-9.083,7.396-16.436,16.48-16.48h233.64
			c9.083,0.044,16.436,7.397,16.48,16.48V279.891z M341.08,269.811c0.004,2.536-1.003,4.97-2.8,6.76
			c-1.79,1.797-4.224,2.804-6.76,2.8h-8.28v-78.48h8.28c5.293,0.022,9.578,4.307,9.6,9.6L341.08,269.811z"/>
	</g>
</g>
<g>
	<g>
		<path fill="#ff9800" d="M153.88,202.131h-31.64c-3.557,0-6.44,2.883-6.44,6.44s2.883,6.44,6.44,6.44h31.64c3.557,0,6.44-2.883,6.44-6.44
			S157.437,202.131,153.88,202.131z"/>
	</g>
</g>
<g>
	<g>
		<path fill="#ff9800" d="M96.12,202.131H64.48c-3.557,0-6.44,2.883-6.44,6.44s2.883,6.44,6.44,6.44h31.64c3.557,0,6.44-2.883,6.44-6.44
			S99.677,202.131,96.12,202.131z"/>
	</g>
</g>
<g>
	<g>
		<path fill="#ff9800" d="M253.08,132.331c-16.868-42.029-64.613-62.426-106.642-45.558c-20.766,8.334-37.224,24.792-45.558,45.558
			c-1.325,3.314,0.286,7.075,3.6,8.4c3.314,1.326,7.075-0.286,8.4-3.6c14.282-35.401,54.559-52.522,89.961-38.24
			c17.411,7.024,31.215,20.829,38.24,38.24c1.326,3.314,5.086,4.925,8.4,3.6C252.794,139.406,254.406,135.645,253.08,132.331z"/>
	</g>
</g>
<g>
</g>
<g>
</g>
<g>
</g>
<g>
</g>
<g>
</g>
<g>
</g>
<g>
</g>
<g>
</g>
<g>
</g>
<g>
</g>
<g>
</g>
<g>
</g>
<g>
</g>
<g>
</g>
<g>
</g>
</svg>
